# xmcd
#
# Track frame offsets: 
#        150
#        12580
#        24017
#        34915
#        37477
#        49590
#        62040
#        73015
#        84095
#        95757
#        107472
#        119462
#        130560
#        141325
#        152455
#        165550
#        177195
#        188930
#        203000
#        215475
#        226815
#        238645
#        249902
#        261910
#        273975
#        281045
#        289922
#        296550
#        304792
#        312537
#        319660
#        327500
#        332692
#        339047
#        346240
#
# Disc length: 4695 seconds
#
# Revision: 0
# Processed by: cddbd v1.4PL0 Copyright (c) Steve Scherf et al.
# Submitted via: ExactAudioCopy v0.90b3
#
DISCID=01125523
DTITLE=Jim Reeves - Welcome To My World - Disc 02
DYEAR=1900
DGENRE=Country
TTITLE0=I'll Follow You (1954)
TTITLE1=Penny Candy (1954)
TTITLE2=Where Does A Broken Heart Go (1954)
TTITLE3=The Wilder Your Heart Beats (False Start) (1994)
TTITLE4=The Wilder Your Heart Beats (1954)
TTITLE5=Drinking Tequila (1955)
TTITLE6=Red Eyed And Rowdy (1955)
TTITLE7=Tahiti (1955)
TTITLE8=Give Me One More Kiss (1955)
TTITLE9=Are You The One (& Alvadean Coker) (1955)
TTITLE10=How Many (1955)
TTITLE11=Hillbilly Waltz (1956)
TTITLE12=Let Me Remember (Things I Can't Forget) (1956)
TTITLE13=Spanish Violins (1982)
TTITLE14=A Woman's Love (1982)
TTITLE15=Whispering Willow (1982)
TTITLE16=If You Love Me Don't Leave Me (1982)
TTITLE17=Each Beat Of My Heart (1982)
TTITLE18=Heart Breaking Baby (1982)
TTITLE19=Let Me Love You Just A Little (Alt.) (1994)
TTITLE20=Then I'll Stop Loving You (Alt.) (1994)
TTITLE21=Hillbilly Waltz (Alt.) (1994)
TTITLE22=Mexican Joe (Alt.) (1994)
TTITLE23=The Marriage Of Mexican Joe (Carolyn Bradshaw) (1954)
TTITLE24=You're The Sweetest Thing (1994)
TTITLE25=I've Forgotten You (1994)
TTITLE26=Sand In My Shoes (1994)
TTITLE27=There's Someone Who Loves You (1994)
TTITLE28=Heartbreaking Baby (1994)
TTITLE29=Did You Darling (1994)
TTITLE30=Standby (1994)
TTITLE31=I'll Always Love You (1994)
TTITLE32=Never Take No For An Answer (1994)
TTITLE33=Please Leave My Darling Alone (1994)
TTITLE34=You're Slipping Away From Me (1994)
EXTD=
EXTT0=
EXTT1=
EXTT2=
EXTT3=
EXTT4=
EXTT5=
EXTT6=
EXTT7=
EXTT8=
EXTT9=
EXTT10=
EXTT11=
EXTT12=
EXTT13=
EXTT14=
EXTT15=
EXTT16=
EXTT17=
EXTT18=
EXTT19=
EXTT20=
EXTT21=
EXTT22=
EXTT23=
EXTT24=
EXTT25=
EXTT26=
EXTT27=
EXTT28=
EXTT29=
EXTT30=
EXTT31=
EXTT32=
EXTT33=
EXTT34=
PLAYORDER=
